<?xml version="1.0" encoding="UTF-8"?>
<svg xmlns="http://www.w3.org/2000/svg" style="display:none">
  <symbol id="sun" viewBox="0 0 24 24" fill="none" stroke="currentColor" stroke-width="1.6" stroke-linecap="round" stroke-linejoin="round">
    <circle cx="12" cy="12" r="4.5"/>
    <path d="M12 2.5v3M12 18.5v3M4.2 4.2l2.1 2.1M17.7 17.7l2.1 2.1M2.5 12h3M18.5 12h3M4.2 19.8l2.1-2.1M17.7 6.3l2.1-2.1"/>
  </symbol>

  <symbol id="moon" viewBox="0 0 24 24" fill="none" stroke="currentColor" stroke-width="1.6" stroke-linecap="round" stroke-linejoin="round">
    <path d="M20 14.5A8.5 8.5 0 1 1 9.5 4a6.5 6.5 0 0 0 10.5 10.5Z"/>
  </symbol>

  <symbol id="menu" viewBox="0 0 24 24" fill="none" stroke="currentColor" stroke-width="1.6" stroke-linecap="round" stroke-linejoin="round">
    <path d="M4 7h16M4 12h16M4 17h16"/>
  </symbol>

  <symbol id="arrow-up" viewBox="0 0 24 24" fill="none" stroke="currentColor" stroke-width="1.6" stroke-linecap="round" stroke-linejoin="round">
    <path d="M12 19V5M5 12l7-7 7 7"/>
  </symbol>

  <symbol id="chevron-down" viewBox="0 0 24 24" fill="none" stroke="currentColor" stroke-width="1.6" stroke-linecap="round" stroke-linejoin="round">
    <path d="m6 9 6 6 6-6"/>
  </symbol>

  <symbol id="copy" viewBox="0 0 24 24" fill="none" stroke="currentColor" stroke-width="1.6" stroke-linecap="round" stroke-linejoin="round">
    <rect x="9" y="9" width="12" height="12" rx="2"/>
    <path d="M5 15H4a1 1 0 0 1-1-1V4a1 1 0 0 1 1-1h10a1 1 0 0 1 1 1v1"/>
  </symbol>

  <symbol id="layout" viewBox="0 0 24 24" fill="none" stroke="currentColor" stroke-width="1.6" stroke-linecap="round" stroke-linejoin="round">
    <rect x="3" y="3" width="18" height="18" rx="2"/>
    <path d="M3 9h18M3 15h18M9 3v18M15 3v18"/>
  </symbol>

  <symbol id="warning" viewBox="0 0 24 24" fill="none" stroke="currentColor" stroke-width="1.6" stroke-linecap="round" stroke-linejoin="round">
    <path d="M12 9v4M12 17h.01M10.3 3.9 1.8 18a2 2 0 0 0 1.7 3h17a2 2 0 0 0 1.7-3L13.7 3.9a2 2 0 0 0-3.4 0Z"/>
  </symbol>

  <symbol id="pencil" viewBox="0 0 24 24" fill="none" stroke="currentColor" stroke-width="1.6" stroke-linecap="round" stroke-linejoin="round">
    <path d="m4.5 16.5-1 5 5-1M15 5l4 4M4 21l7-7M13.5 3.5a4.95 4.95 0 0 1 7 7L11 20l-4-4Z"/>
  </symbol>

  <symbol id="trend" viewBox="0 0 24 24" fill="none" stroke="currentColor" stroke-width="1.6" stroke-linecap="round" stroke-linejoin="round">
    <path d="M3 17 9 11l4 4 8-8M21 7h-6v6"/>
  </symbol>

  <symbol id="file-text" viewBox="0 0 24 24" fill="none" stroke="currentColor" stroke-width="1.6" stroke-linecap="round" stroke-linejoin="round">
    <path d="M14 3v5h5M6 3h8l5 5v13a1 1 0 0 1-1 1H6a1 1 0 0 1-1-1V4a1 1 0 0 1 1-1Z"/>
    <path d="M8 13h8M8 17h5"/>
  </symbol>

  <symbol id="clock" viewBox="0 0 24 24" fill="none" stroke="currentColor" stroke-width="1.6" stroke-linecap="round" stroke-linejoin="round">
    <circle cx="12" cy="12" r="9"/>
    <path d="M12 7v5l3 2"/>
  </symbol>

  <symbol id="monitor" viewBox="0 0 24 24" fill="none" stroke="currentColor" stroke-width="1.6" stroke-linecap="round" stroke-linejoin="round">
    <rect x="2" y="4" width="20" height="13" rx="1.5"/>
    <path d="M8 21h8M12 17v4"/>
  </symbol>

  <symbol id="check-circle" viewBox="0 0 24 24" fill="none" stroke="currentColor" stroke-width="1.6" stroke-linecap="round" stroke-linejoin="round">
    <path d="m9 12 2 2 4-4"/>
    <circle cx="12" cy="12" r="9"/>
  </symbol>

  <symbol id="grid" viewBox="0 0 24 24" fill="none" stroke="currentColor" stroke-width="1.6" stroke-linecap="round" stroke-linejoin="round">
    <rect x="3" y="3" width="8" height="8" rx="1.5"/>
    <rect x="13" y="3" width="8" height="8" rx="1.5"/>
    <rect x="3" y="13" width="8" height="8" rx="1.5"/>
    <rect x="13" y="13" width="8" height="8" rx="1.5"/>
  </symbol>

  <symbol id="refresh" viewBox="0 0 24 24" fill="none" stroke="currentColor" stroke-width="1.6" stroke-linecap="round" stroke-linejoin="round">
    <path d="M21 12a9 9 0 1 1-3-6.7M21 4v5h-5"/>
  </symbol>

  <symbol id="kanban" viewBox="0 0 24 24" fill="none" stroke="currentColor" stroke-width="1.6" stroke-linecap="round" stroke-linejoin="round">
    <rect x="3" y="3" width="7" height="9" rx="1"/>
    <rect x="14" y="3" width="7" height="5" rx="1"/>
    <rect x="14" y="12" width="7" height="9" rx="1"/>
    <rect x="3" y="16" width="7" height="5" rx="1"/>
  </symbol>

  <symbol id="phone" viewBox="0 0 24 24" fill="none" stroke="currentColor" stroke-width="1.6" stroke-linecap="round" stroke-linejoin="round">
    <path d="M22 16.92v3a2 2 0 0 1-2.18 2 19.79 19.79 0 0 1-8.63-3.07 19.5 19.5 0 0 1-6-6 19.79 19.79 0 0 1-3.07-8.67A2 2 0 0 1 4.11 2h3a2 2 0 0 1 2 1.72c.13.96.36 1.9.7 2.81a2 2 0 0 1-.45 2.11L8.09 9.91a16 16 0 0 0 6 6l1.27-1.27a2 2 0 0 1 2.11-.45c.91.34 1.85.57 2.81.7A2 2 0 0 1 22 16.92Z"/>
  </symbol>

  <symbol id="sparkle" viewBox="0 0 24 24" fill="none" stroke="currentColor" stroke-width="1.6" stroke-linecap="round" stroke-linejoin="round">
    <path d="M12 3v4M12 17v4M3 12h4M17 12h4M6 6l2 2M16 16l2 2M6 18l2-2M16 8l2-2"/>
  </symbol>

  <symbol id="arrow-right" viewBox="0 0 24 24" fill="none" stroke="currentColor" stroke-width="1.6" stroke-linecap="round" stroke-linejoin="round">
    <path d="M5 12h14M13 6l6 6-6 6"/>
  </symbol>

  <symbol id="modules" viewBox="0 0 24 24" fill="none" stroke="currentColor" stroke-width="1.6" stroke-linecap="round" stroke-linejoin="round">
    <rect x="3" y="3" width="7" height="7" rx="1.5"/>
    <rect x="14" y="3" width="7" height="7" rx="1.5"/>
    <rect x="3" y="14" width="7" height="7" rx="1.5"/>
    <rect x="14" y="14" width="7" height="7" rx="1.5"/>
    <path d="M10 6.5h4M10 17.5h4M6.5 10v4M17.5 10v4"/>
  </symbol>

  <symbol id="shield-check" viewBox="0 0 24 24" fill="none" stroke="currentColor" stroke-width="1.6" stroke-linecap="round" stroke-linejoin="round">
    <path d="M12 2 4 6v6c0 5 3.5 9 8 10 4.5-1 8-5 8-10V6Z"/>
    <path d="m9 12 2 2 4-4"/>
  </symbol>

  <symbol id="award" viewBox="0 0 24 24" fill="none" stroke="currentColor" stroke-width="1.6" stroke-linecap="round" stroke-linejoin="round">
    <path d="M8 21h8M12 17v4M7 4h10v4a5 5 0 0 1-10 0V4Z"/>
    <path d="M7 5H4a1 1 0 0 0-1 1 4 4 0 0 0 4 4M17 5h3a1 1 0 0 1 1 1 4 4 0 0 1-4 4"/>
  </symbol>

  <symbol id="lightning" viewBox="0 0 24 24" fill="none" stroke="currentColor" stroke-width="1.6" stroke-linecap="round" stroke-linejoin="round">
    <path d="M13 2 3 14h7l-1 8 10-12h-7l1-8Z"/>
  </symbol>

  <symbol id="mail" viewBox="0 0 24 24" fill="none" stroke="currentColor" stroke-width="1.6" stroke-linecap="round" stroke-linejoin="round">
    <rect x="3" y="5" width="18" height="14" rx="2"/>
    <path d="m3 7 9 6 9-6"/>
  </symbol>

  <symbol id="map-pin" viewBox="0 0 24 24" fill="none" stroke="currentColor" stroke-width="1.6" stroke-linecap="round" stroke-linejoin="round">
    <path d="M20 10c0 7-8 13-8 13s-8-6-8-13a8 8 0 0 1 16 0Z"/>
    <circle cx="12" cy="10" r="3"/>
  </symbol>

  <symbol id="link" viewBox="0 0 24 24" fill="none" stroke="currentColor" stroke-width="1.6" stroke-linecap="round" stroke-linejoin="round">
    <path d="M10 14a5 5 0 0 0 7 0l3-3a5 5 0 0 0-7-7l-1 1"/>
    <path d="M14 10a5 5 0 0 0-7 0l-3 3a5 5 0 0 0 7 7l1-1"/>
  </symbol>

  <symbol id="download" viewBox="0 0 24 24" fill="none" stroke="currentColor" stroke-width="1.6" stroke-linecap="round" stroke-linejoin="round">
    <path d="M12 4v12"/>
    <path d="m6 12 6 6 6-6"/>
    <path d="M4 20h16"/>
  </symbol>

  <symbol id="share" viewBox="0 0 24 24" fill="none" stroke="currentColor" stroke-width="1.6" stroke-linecap="round" stroke-linejoin="round">
    <circle cx="18" cy="5" r="2.5"/>
    <circle cx="6" cy="12" r="2.5"/>
    <circle cx="18" cy="19" r="2.5"/>
    <path d="M8.5 10.5 15.5 6.5"/>
    <path d="M8.5 13.5 15.5 17.5"/>
  </symbol>

  <symbol id="check" viewBox="0 0 24 24" fill="none" stroke="currentColor" stroke-width="1.6" stroke-linecap="round" stroke-linejoin="round">
    <path d="m4 12 5 5 11-11"/>
  </symbol>

  <symbol id="globe" viewBox="0 0 24 24" fill="none" stroke="currentColor" stroke-width="1.6" stroke-linecap="round" stroke-linejoin="round">
    <circle cx="12" cy="12" r="9"/>
    <path d="M2 12h20"/>
    <path d="M12 2a15.3 15.3 0 0 1 4 20 15.3 15.3 0 0 1-4-20 15.3 15.3 0 0 1-4 20"/>
  </symbol>

  <symbol id="unlock" viewBox="0 0 24 24" fill="none" stroke="currentColor" stroke-width="1.6" stroke-linecap="round" stroke-linejoin="round">
    <rect x="5" y="11" width="14" height="10" rx="2"/>
    <path d="M7 11V7a5 5 0 0 1 9.9-1"/>
    <path d="M12 16v3"/>
  </symbol>
</svg>